# xmcd
#
# Track frame offsets:
#	150
#	15486
#	33154
#	53614
#	72789
#	90724
#	107641
#	126635
#	142050
#	159270
#	176048
#	198646
#	217813
#	235526
#	255382
#	271805
#	290209
#	308596
#	322620
#
# Disc length: 4588
#
# Revision: 1
# Processed by: cddbd v1.5.1PL0 Copyright (c) Steve Scherf et al.
# Submitted via: CDex 1.50Beta7
# Normalized: r0:TDELIM( - )
#
DISCID=0111ea13
DTITLE=Various Artist - BODY and SOUL CD2
DYEAR=2001
DGENRE=Blues
TTITLE0=INESSA and DANTE THOMAS - GUILTY (Original Radio Version)
TTITLE1=DESTINY'S CHILD - EMOTION (Album Version)
TTITLE2=SADE - BY YOUR SIDE (Album Version)
TTITLE3=SARAH CONNOR - FROM SARAH WITH LOVE (Urban Remix)
TTITLE4=LINDA CARRIERE - JUST FRIENDS (Director's Cut)
TTITLE5=AYMAN FEAT. KEITH SWEAT - DIESER BRIEF (Englische Version)
TTITLE6=JON SECADA - YOU SHOULD BE MINE (Album Version)
TTITLE7=LUTHER VANDROSS - TAKE YOU OUT (Album Version)
TTITLE8=JOE - STUTTER (Album Version)
TTITLE9=JAHEIM - COULD IT BE (Album Version)
TTITLE10=R. KELLY - A WOMAN'S THREAT (Radio Edit)
TTITLE11=JILL SCOTT - THE WAY (Album Version)
TTITLE12=MACY GRAY - I TRY (Album Version)
TTITLE13=ALL SAINTS - PURE SHORES (5" Version)
TTITLE14=MELANIE THORNTON - FOREVER (Album Version)
TTITLE15=DES'REE - WHAT'S YOUR SIGN? (Album Version)
TTITLE16=WYCLEF JEAN - WISH YOU WERE HERE (Album Version)
TTITLE17=HIL ST SOUL - UNTIL YOU COME BACK TO ME (Acoustic Version)
TTITLE18=GEORGE MICHAEL - WAITING FOR THAT DAY (Album Version)
EXTD=YEAR: 2001
EXTT0=
EXTT1=
EXTT2=
EXTT3=
EXTT4=
EXTT5=
EXTT6=
EXTT7=
EXTT8=
EXTT9=
EXTT10=
EXTT11=
EXTT12=
EXTT13=
EXTT14=
EXTT15=
EXTT16=
EXTT17=
EXTT18=
PLAYORDER=
